REM DIRINDEX 1\2\3,1\2\4,1\2\5,1\2\6
REM DIRNAME folder01,folder02,folder03,folder04,folder05,folder06
TITLE ""
FILE "055 055.mp3" MP3
  TRACK 01 AUDIO
    TITLE "0:"
    INDEX 01 00:00:00
  TRACK 02 AUDIO
    TITLE "3:cjc157_2084"
    INDEX 01 00:00:11
  TRACK 03 AUDIO
    TITLE "0:"
    INDEX 01 00:01:46
  TRACK 04 AUDIO
    TITLE "4:cjc157_2085"
    INDEX 01 00:02:20
  TRACK 05 AUDIO
    TITLE "0:"
    INDEX 01 00:03:39
  TRACK 06 AUDIO
    TITLE "5:cjc157_2086"
    INDEX 01 00:04:13
  TRACK 07 AUDIO
    TITLE "0:"
    INDEX 01 00:06:37
  TRACK 08 AUDIO
    TITLE "5:cjc157_2087"
    INDEX 01 00:07:05
  TRACK 09 AUDIO
    TITLE "0:"
    INDEX 01 00:09:55
  TRACK 10 AUDIO
    TITLE "3:cjc157_2088"
    INDEX 01 00:10:21
  TRACK 11 AUDIO
    TITLE "0:"
    INDEX 01 00:11:35
  TRACK 12 AUDIO
    TITLE "4:cjc157_2089"
    INDEX 01 00:12:05
  TRACK 13 AUDIO
    TITLE "0:"
    INDEX 01 00:13:22
  TRACK 14 AUDIO
    TITLE "5:cjc157_2090"
    INDEX 01 00:13:63
  TRACK 15 AUDIO
    TITLE "0:"
    INDEX 01 00:16:34
  TRACK 16 AUDIO
    TITLE "5:cjc157_2091"
    INDEX 01 00:17:04
  TRACK 17 AUDIO
    TITLE "0:"
    INDEX 01 00:19:36
  TRACK 18 AUDIO
    TITLE "3:cjc157_2092"
    INDEX 01 00:20:04
  TRACK 19 AUDIO
    TITLE "0:"
    INDEX 01 00:21:39
  TRACK 20 AUDIO
    TITLE "4:cjc157_2093"
    INDEX 01 00:22:11
  TRACK 21 AUDIO
    TITLE "0:"
    INDEX 01 00:23:34
  TRACK 22 AUDIO
    TITLE "5:cjc157_2094"
    INDEX 01 00:24:04
  TRACK 23 AUDIO
    TITLE "0:"
    INDEX 01 00:25:74
  TRACK 24 AUDIO
    TITLE "3:cjc157_2095"
    INDEX 01 00:26:42
  TRACK 25 AUDIO
    TITLE "0:"
    INDEX 01 00:27:38
  TRACK 26 AUDIO
    TITLE "4:cjc157_2096"
    INDEX 01 00:28:08
  TRACK 27 AUDIO
    TITLE "0:"
    INDEX 01 00:29:09
  TRACK 28 AUDIO
    TITLE "5:cjc157_2097"
    INDEX 01 00:29:58
  TRACK 29 AUDIO
    TITLE "0:"
    INDEX 01 00:33:30
  TRACK 30 AUDIO
    TITLE "5:cjc157_2098"
    INDEX 01 00:33:73
  TRACK 31 AUDIO
    TITLE "0:"
    INDEX 01 00:39:29
  TRACK 32 AUDIO
    TITLE "5:cjc157_2099"
    INDEX 01 00:40:01
  TRACK 33 AUDIO
    TITLE "0:"
    INDEX 01 00:41:24
  TRACK 34 AUDIO
    TITLE "3:cjc157_2100"
    INDEX 01 00:41:71
  TRACK 35 AUDIO
    TITLE "0:"
    INDEX 01 00:43:40
  TRACK 36 AUDIO
    TITLE "4:cjc157_2101"
    INDEX 01 00:44:07
  TRACK 37 AUDIO
    TITLE "0:"
    INDEX 01 00:45:22
  TRACK 38 AUDIO
    TITLE "5:cjc157_2102"
    INDEX 01 00:45:67
  TRACK 39 AUDIO
    TITLE "0:"
    INDEX 01 00:48:10
  TRACK 40 AUDIO
    TITLE "3:cjc157_2103"
    INDEX 01 00:48:53
  TRACK 41 AUDIO
    TITLE "0:"
    INDEX 01 00:50:13
  TRACK 42 AUDIO
    TITLE "4:cjc157_2104"
    INDEX 01 00:50:60
  TRACK 43 AUDIO
    TITLE "0:"
    INDEX 01 00:51:73
  TRACK 44 AUDIO
    TITLE "5:cjc157_2105"
    INDEX 01 00:52:47
  TRACK 45 AUDIO
    TITLE "0:"
    INDEX 01 00:55:53
  TRACK 46 AUDIO
    TITLE "3:cjc157_2106"
    INDEX 01 00:56:24
  TRACK 47 AUDIO
    TITLE "0:"
    INDEX 01 00:57:48
  TRACK 48 AUDIO
    TITLE "4:cjc157_2107"
    INDEX 01 00:58:18
  TRACK 49 AUDIO
    TITLE "0:"
    INDEX 01 00:59:18
  TRACK 50 AUDIO
    TITLE "5:cjc157_2108"
    INDEX 01 00:59:63
  TRACK 51 AUDIO
    TITLE "0:"
    INDEX 01 01:01:70
  TRACK 52 AUDIO
    TITLE "5:cjc157_2109"
    INDEX 01 01:02:38
  TRACK 53 AUDIO
    TITLE "0:"
    INDEX 01 01:04:31
  TRACK 54 AUDIO
    TITLE "3:cjc157_2110"
    INDEX 01 01:05:01
  TRACK 55 AUDIO
    TITLE "0:"
    INDEX 01 01:06:26
  TRACK 56 AUDIO
    TITLE "4:cjc157_2111"
    INDEX 01 01:07:00
  TRACK 57 AUDIO
    TITLE "0:"
    INDEX 01 01:08:31
  TRACK 58 AUDIO
    TITLE "5:cjc157_2112"
    INDEX 01 01:08:74
  TRACK 59 AUDIO
    TITLE "0:"
    INDEX 01 01:11:45
  TRACK 60 AUDIO
    TITLE "3:cjc157_2113"
    INDEX 01 01:12:19
  TRACK 61 AUDIO
    TITLE "0:"
    INDEX 01 01:13:44
  TRACK 62 AUDIO
    TITLE "4:cjc157_2114"
    INDEX 01 01:14:12
  TRACK 63 AUDIO
    TITLE "0:"
    INDEX 01 01:15:40
  TRACK 64 AUDIO
    TITLE "5:cjc157_2115"
    INDEX 01 01:16:09
  TRACK 65 AUDIO
    TITLE "0:"
    INDEX 01 01:19:15
  TRACK 66 AUDIO
    TITLE "5:cjc157_2116"
    INDEX 01 01:19:56
  TRACK 67 AUDIO
    TITLE "0:"
    INDEX 01 01:21:55
  TRACK 68 AUDIO
    TITLE "3:cjc157_2117"
    INDEX 01 01:22:25
  TRACK 69 AUDIO
    TITLE "0:"
    INDEX 01 01:24:00
  TRACK 70 AUDIO
    TITLE "4:cjc157_2118"
    INDEX 01 01:24:49
  TRACK 71 AUDIO
    TITLE "0:"
    INDEX 01 01:26:03
  TRACK 72 AUDIO
    TITLE "5:cjc157_2119"
    INDEX 01 01:26:46
  TRACK 73 AUDIO
    TITLE "0:"
    INDEX 01 01:31:18
